<?xml version="1.0" encoding="utf-8"?>
<!-- Generator: Adobe Illustrator 12.0.0, SVG Export Plug-In . SVG Version: 6.00 Build 51448)  -->
<!DOCTYPE svg PUBLIC "-//W3C//DTD SVG 1.1//EN" "http://www.w3.org/Graphics/SVG/1.1/DTD/svg11.dtd" [
	<!ENTITY ns_svg "http://www.w3.org/2000/svg">
	<!ENTITY ns_xlink "http://www.w3.org/1999/xlink">
]>
<svg  version="1.1" id="Layer_1" xmlns="&ns_svg;" xmlns:xlink="&ns_xlink;" width="757.275" height="138.223"
	 viewBox="0 0 757.275 138.223" overflow="visible" enable-background="new 0 0 757.275 138.223" xml:space="preserve">
<g>
	<path fill-rule="evenodd" clip-rule="evenodd" fill="#F5821F" d="M238.422,99.355v19.189h-62.171V26.559h23.178v72.797H238.422
		L238.422,99.355z M286.587,111.66c-2.173,2.661-8.328,9.18-20.041,9.18c-11.71,0-23.779-7.849-23.779-21.13v-47.8h21.847v43.942
		c0,3.381,2.777,8.936,10.263,8.936c7.727,0,10.501-7.129,10.501-10.621V51.91h21.731v66.635h-19.073L286.587,111.66L286.587,111.66
		z M571.124,58.792c2.173-2.658,8.209-9.176,20.041-9.176c11.588,0,23.66,7.85,23.66,21.005v47.925h-21.851V74.6
		c0-3.497-2.776-8.926-10.263-8.926c-7.604,0-10.379,7.241-10.379,10.622v42.249h-21.732V51.91h19.074L571.124,58.792
		L571.124,58.792z M430.365,57.465c1.086-1.09,7.122-7.85,18.829-7.85c11.713,0,23.663,7.968,23.663,21.127v47.925l-21.729-0.122
		V74.844c0-3.256-2.899-9.17-10.382-9.17c-7.605,0-10.382,7.363-10.382,10.745v42.126l-21.732,0.122V26.559h21.732V57.465
		L430.365,57.465z M360.104,66.638V51.91h9.295V31.146h21.851V51.91h11.951v14.728H391.25v31.753c0,2.648,1.086,5.065,7.245,5.065
		h4.706v15.088h-15.573c-10.983,0-18.228-7.239-18.228-18.103V66.638H360.104L360.104,66.638z M312.543,51.91v14.728h9.295v51.907
		h21.848V66.638h12.073V51.91h-12.073v-5.432c0-2.655,1.089-5.192,7.367-5.192h5.191V26.559h-16.178
		c-10.623,0-18.228,7.728-18.228,18.109v7.242H312.543L312.543,51.91z M684.479,99.233c0-18.836-17.383-19.556-30.298-22.217
		c-7.244-1.453-11.108-3.497-10.626-7.119c0.366-3.741,2.655-5.796,9.54-5.796c7.604,0,9.899,3.141,9.899,9.655h19.189
		c0-17.382-11.468-24.142-30.298-24.142c-22.332,0-30.06,11.591-30.06,22.214c0,5.92,3.741,11.462,8.813,14.001
		c4.706,2.539,12.311,4.224,19.073,5.921c6.879,1.684,12.915,3.015,12.915,7.727c0,4.822-3.619,6.873-11.225,6.873
		c-7.244,0-11.59-3.382-11.59-10.742h-20.282c0,19.555,14.489,25.231,32.715,25.231C674.579,120.84,684.479,109.976,684.479,99.233
		L684.479,99.233z M714.661,73.757h-19.678c0-15.328,11.706-24.142,29.333-24.142c22.333,0,31.146,11.591,31.146,22.214v38.391
		c0,1.33,0,6.152,1.813,8.325H736.39l-1.209-5.908c-4.468,4.468-8.93,7.36-20.404,8.203c-13.396,1.087-25.47-5.065-25.47-19.678
		V99.71c0-6.275,4.834-12.916,10.626-15.687c6.396-3.015,14.002-4.102,23.657-5.921c9.662-1.684,11.23-4.102,11.23-7.119
		c0-4.227-2.532-6.277-10.26-6.277C716.956,64.706,714.661,68.087,714.661,73.757L714.661,73.757z M734.82,87.881l-14.245,3.747
		c-3.863,0.965-8.813,1.807-9.174,6.995c-0.366,5.2,4.102,8.46,12.188,7.373c7.972-1.208,11.23-8.093,11.23-12.806V87.881
		L734.82,87.881z M502.917,73.757h-19.555c0-15.328,11.586-24.142,29.213-24.142c22.334,0,31.145,11.591,31.145,22.214v38.391
		c0,1.33,0,6.152,1.813,8.325h-20.887l-1.086-5.908c-4.346,4.468-9.055,7.36-20.52,8.203c-13.281,1.087-25.475-5.065-25.475-19.678
		V99.71c0-6.275,5.07-12.916,10.624-15.687c6.638-3.015,14.005-4.102,23.661-5.921c9.658-1.684,11.227-4.102,11.227-7.119
		c0-4.227-2.535-6.277-10.021-6.277C505.332,64.706,502.917,68.087,502.917,73.757L502.917,73.757z M523.077,87.881l-14.245,3.747
		c-3.622,0.965-8.691,1.807-9.054,6.995c-0.484,5.2,3.981,8.46,12.072,7.373c8.086-1.208,11.227-8.093,11.227-12.806V87.881
		L523.077,87.881z M68.93,0c38.028,0,69.171,31.146,69.171,69.174c0,37.909-31.143,69.049-69.171,69.049
		C31.024,138.223,0,107.083,0,69.174C0,31.146,31.024,0,68.93,0L68.93,0z M68.93,5.19c35.128,0,63.98,28.974,63.98,63.983
		c0,34.882-28.852,63.86-63.98,63.86c-34.891,0-63.861-28.979-63.861-63.86C5.069,34.164,34.039,5.19,68.93,5.19L68.93,5.19z
		 M101.404,100.319c-30.664-4.955-58.911-30.3-89.938-42.736l0.363-2.291l9.659,2.773l0.964-1.932l29.941,12.918l0.36,1.69
		l-17.868-6.399v0.726c9.659,6.033,19.317,10.141,28.732,7.483c6.881-1.45,14.85-10.142,18.231-16.657l9.897-0.846
		c12.073-0.726,24.627,2.051,36.578,3.983l-1.69,2.291c-10.138-1.687-20.642-2.655-30.783-2.896l-1.328,1.691
		c10.26,0.723,20.038,1.447,29.938,3.137l-2.536,2.417c-9.897-1.331-20.038-2.417-30.057-1.933L90.54,65.43
		c9.656,0.244,20.279,0.845,29.575,2.053l-2.173,2.537c-9.9-0.604-20.041-1.813-29.938-0.846l-1.086,1.929
		c9.537-0.24,20.16,0.244,28.852,1.09l-1.81,2.291c-10.868-0.359-22.574-0.848-33.683,2.533l-8.691,3.381l1.572,2.174
		c10.501,9.777,20.883,12.793,31.506,13.037l-2.417,4.711l0,0H101.404L101.404,100.319z"/>
</g>
</svg>
